<?xml version="1.0" encoding="utf-8"?>
<!-- Generator: Adobe Illustrator 23.0.1, SVG Export Plug-In . SVG Version: 6.00 Build 0)  -->
<svg version="1.1" id="Layer_1" xmlns="http://www.w3.org/2000/svg" xmlns:xlink="http://www.w3.org/1999/xlink" x="0px" y="0px"
	 viewBox="0 0 900 900" style="enable-background:new 0 0 900 900;" xml:space="preserve">
<style type="text/css">
	.st0{fill:#FFFFFF;}
</style>
<path class="st0" d="M771,15.1H129c-63,0-114,51-114,114V771c0,63,51,114,114,114H771c63,0,114-51,114-114V129
	C884.9,66.1,833.9,15.1,771,15.1z M470,104.7c96.5,0,174.7,26.2,174.7,58.5c0,32.3-78.2,58.5-174.7,58.5s-174.7-26.2-174.7-58.5
	C295.3,130.9,373.5,104.7,470,104.7z M294.8,220.1l1.2-46.5c0,8.3,5.1,16.1,14.4,23.3c26.9,20.8,88.5,35.3,160.3,35.3
	c70.8,0,131.7-14.1,159.2-34.4c9.6-7.1,15.1-14.9,15.5-23.2l-1.1,46.5c0,32.3-78.2,58.5-174.7,58.5s-174.7-26.2-174.7-58.5
	L294.8,220.1z M294.8,299.3l1.2-46.5c0,8.3,5.1,16.1,14.4,23.3c26.9,20.8,88.5,35.3,160.3,35.3c70.8,0,131.7-14.1,159.2-34.4
	c9.6-7.1,15.1-14.9,15.5-23.2l-1.1,46.5c0,32.3-78.2,58.5-174.7,58.5s-174.7-26.2-174.7-58.5L294.8,299.3z M286.9,738.2
	c-8.4,13.2-20.3,23-35.6,29.4c-15.3,6.4-34.5,9.6-57.3,9.6c-33.3,0-58.9-7.7-76.8-23.1c-17.9-15.4-28.5-37.8-32-67.3l51.8-5
	c3.1,17.4,9.4,30.1,19,38.3c9.5,8.2,22.4,12.2,38.6,12.2c17.1,0,30-3.6,38.7-10.9c8.7-7.3,13-15.7,13-25.4c0-6.2-1.8-11.5-5.5-15.9
	c-3.7-4.4-10-8.2-19.1-11.4c-6.2-2.2-20.4-6-42.6-11.5c-28.5-7.1-48.5-15.8-60-26.1c-16.2-14.5-24.3-32.2-24.3-53
	c0-13.4,3.8-26,11.4-37.7c7.6-11.7,18.6-20.6,32.9-26.7c14.3-6.1,31.6-9.2,51.9-9.2c33.1,0,58,7.3,74.7,21.8
	c16.7,14.5,25.5,33.9,26.3,58.1l-53.2,2.3c-2.3-13.5-7.2-23.3-14.7-29.2s-18.7-8.9-33.7-8.9c-15.4,0-27.6,3.2-36.3,9.5
	c-5.6,4.1-8.5,9.5-8.5,16.4c0,6.2,2.6,11.6,7.9,16c6.7,5.6,23,11.5,48.9,17.6c25.9,6.1,45,12.4,57.4,19
	c12.4,6.5,22.1,15.5,29.1,26.8c7,11.3,10.5,25.3,10.5,42C299.4,710.9,295.2,725,286.9,738.2z M294.7,379.3l0-0.9l1.2-46.5
	c0,8.3,5.1,16.1,14.4,23.3c26.9,20.8,88.5,35.3,160.3,35.3c70.8,0,131.7-14.1,159.2-34.4c9.6-7.1,15.1-15,15.5-23.2l-1.1,46.5
	c0,32.3-78.2,58.5-174.7,58.5S294.7,411.6,294.7,379.3z M579.3,798.9c-8-2.4-15.9-5.7-23.5-9.9c-1.7-0.8-13.5-8.6-35.4-23.4
	C503.1,773.2,484,777,463,777c-40.5,0-72.2-11.9-95.2-35.8s-34.4-57.3-34.4-100.5c0-43,11.5-76.5,34.5-100.4
	c23-23.9,54.2-35.9,93.7-35.9c39.1,0,70,12,92.9,35.9c22.9,23.9,34.3,57.4,34.3,100.4c0,22.8-3.2,42.8-9.5,60
	c-4.8,13.2-12.5,26-23,38.3c13.1,9.3,27.3,16.8,42.6,22.3L579.3,798.9z M817.5,772.5H632V511.1h53.2v217h132.3V772.5z"/>
<path class="st0" d="M534,640.8c0,14.7-1.7,27.8-5.1,39.2c-3.4,11.4-8.5,21.1-15.4,29.1c-15.9-12-32.7-21-50.2-27l-14.9,30.4
	c11.2,4,22.1,9.5,32.9,16.5c-6.8,2.5-14.1,3.8-21.8,3.8c-20.6,0-37.7-7.6-51.1-22.9c-13.5-15.3-20.2-38.3-20.2-69.1
	c0-30.3,6.7-53,20.2-68.1c13.5-15.1,31.1-22.7,52.8-22.7c21.7,0,39.2,7.5,52.7,22.6C527.3,587.6,534,610.3,534,640.8z"/>
</svg>
