<?xml version="1.0"?>
<svg xmlns="http://www.w3.org/2000/svg" xmlns:xlink="http://www.w3.org/1999/xlink" version="1.1" viewBox="0 0 226 226" width="26px" height="26px"><g fill="none" fill-rule="nonzero" stroke="none" stroke-width="1" stroke-linecap="butt" stroke-linejoin="miter" stroke-miterlimit="10" stroke-dasharray="" stroke-dashoffset="0" font-family="none" font-weight="none" font-size="none" text-anchor="none" style="mix-blend-mode: normal"><path d="M0,226v-226h226v226z" fill="none"/><g fill="#ffffff"><g id="surface1"><path d="M111.91346,8.96394c-8.86208,0.03395 -17.55438,0.88282 -24.99038,2.17308c-21.90054,3.83684 -25.80529,11.85006 -25.80529,26.62019v22.81731h52.15385v9.23558h-76.8726c-15.04177,0 -28.45372,9.06581 -32.59615,26.07692c-4.75361,19.48979 -4.95734,31.50962 0,51.88221c3.70102,15.14363 12.66496,26.07692 27.70673,26.07692h20.64423v-28.52163c0,-16.90925 14.77013,-32.59615 32.32452,-32.59615h45.63462c14.39663,0 26.07692,-11.78215 26.07692,-26.07692v-48.89423c0,-13.88732 -12.01983,-24.27735 -26.07692,-26.62019c-8.89603,-1.46004 -9.33744,-2.20703 -18.19952,-2.17308zM82.57692,29.33654c5.33083,0 9.77885,4.38011 9.77885,9.77885c0,5.36479 -4.44802,9.77885 -9.77885,9.77885c-5.36478,0 -9.77885,-4.41406 -9.77885,-9.77885c0,-5.39874 4.41407,-9.77885 9.77885,-9.77885zM165.15385,60.84615v28.52163c0,16.90926 -14.77013,32.59615 -32.32452,32.59615h-45.63462c-14.39663,0 -26.07692,11.78215 -26.07692,26.07692v48.89423c0,13.88732 12.01984,24.3113 26.07692,26.62019c8.89604,1.46004 9.33744,2.24099 18.19952,2.17308c8.86208,-0.03395 17.55438,-0.88281 24.99038,-2.17308c21.90054,-3.80288 25.80529,-11.85006 25.80529,-26.62019v-22.81731h-52.15385v-9.23558h76.8726c15.04177,0 28.45373,-9.06581 32.59615,-26.07692c4.75361,-19.48978 4.95734,-31.50962 0,-51.88221c-3.70102,-15.14363 -12.66496,-26.07692 -27.70673,-26.07692zM134.73077,185.79808c5.36479,0 9.77885,4.41407 9.77885,9.77885c0,5.39874 -4.41406,9.77885 -9.77885,9.77885c-5.33083,0 -9.77885,-4.38011 -9.77885,-9.77885c0,-5.36478 4.44802,-9.77885 9.77885,-9.77885z"/></g></g></g></svg>
